<mxfile host="app.diagrams.net" agent="Mozilla/5.0 (Windows NT 10.0; Win64; x64) AppleWebKit/537.36 (KHTML, like Gecko) Chrome/129.0.0.0 Safari/537.36 Edg/129.0.0.0" version="24.7.14">
  <diagram name="Página-1" id="4eZlmuM-PPHnIgkoYzvH">
    <mxGraphModel dx="1585" dy="885" grid="1" gridSize="10" guides="1" tooltips="1" connect="1" arrows="1" fold="1" page="1" pageScale="1" pageWidth="827" pageHeight="1169" math="0" shadow="0">
      <root>
        <mxCell id="0" />
        <mxCell id="1" parent="0" />
        <mxCell id="nHZGqctwkZ7mky7nG77i-56" value="" style="edgeStyle=orthogonalEdgeStyle;rounded=0;orthogonalLoop=1;jettySize=auto;html=1;entryX=0.75;entryY=1;entryDx=0;entryDy=0;" parent="1" source="nHZGqctwkZ7mky7nG77i-6" target="nHZGqctwkZ7mky7nG77i-55" edge="1">
          <mxGeometry relative="1" as="geometry" />
        </mxCell>
        <mxCell id="nHZGqctwkZ7mky7nG77i-6" value="Usuário" style="swimlane;childLayout=stackLayout;horizontal=1;startSize=30;horizontalStack=0;rounded=1;fontSize=14;fontStyle=0;strokeWidth=2;resizeParent=0;resizeLast=1;shadow=0;dashed=0;align=center;arcSize=4;whiteSpace=wrap;html=1;" parent="1" vertex="1">
          <mxGeometry x="700" y="150" width="160" height="120" as="geometry" />
        </mxCell>
        <mxCell id="nHZGqctwkZ7mky7nG77i-7" value="- Usuário Id&lt;div&gt;- Nome&lt;/div&gt;&lt;div&gt;- Email&lt;/div&gt;&lt;div&gt;- Status&lt;/div&gt;&lt;div&gt;- Data Criação&lt;/div&gt;" style="align=left;strokeColor=none;fillColor=none;spacingLeft=4;fontSize=12;verticalAlign=top;resizable=0;rotatable=0;part=1;html=1;" parent="nHZGqctwkZ7mky7nG77i-6" vertex="1">
          <mxGeometry y="30" width="160" height="90" as="geometry" />
        </mxCell>
        <mxCell id="nHZGqctwkZ7mky7nG77i-19" style="edgeStyle=orthogonalEdgeStyle;rounded=0;orthogonalLoop=1;jettySize=auto;html=1;entryX=1;entryY=0.25;entryDx=0;entryDy=0;" parent="1" source="nHZGqctwkZ7mky7nG77i-13" target="nHZGqctwkZ7mky7nG77i-16" edge="1">
          <mxGeometry relative="1" as="geometry" />
        </mxCell>
        <mxCell id="nHZGqctwkZ7mky7nG77i-13" value="Permissão" style="swimlane;childLayout=stackLayout;horizontal=1;startSize=30;horizontalStack=0;rounded=1;fontSize=14;fontStyle=0;strokeWidth=2;resizeParent=0;resizeLast=1;shadow=0;dashed=0;align=center;arcSize=4;whiteSpace=wrap;html=1;" parent="1" vertex="1">
          <mxGeometry x="1180" y="10" width="160" height="90" as="geometry" />
        </mxCell>
        <mxCell id="nHZGqctwkZ7mky7nG77i-14" value="- Permissão Id&lt;div&gt;- Nome&lt;/div&gt;&lt;div&gt;- Descrição&lt;/div&gt;" style="align=left;strokeColor=none;fillColor=none;spacingLeft=4;fontSize=12;verticalAlign=top;resizable=0;rotatable=0;part=1;html=1;" parent="nHZGqctwkZ7mky7nG77i-13" vertex="1">
          <mxGeometry y="30" width="160" height="60" as="geometry" />
        </mxCell>
        <mxCell id="nHZGqctwkZ7mky7nG77i-15" value="UsuárioPermissão" style="swimlane;childLayout=stackLayout;horizontal=1;startSize=30;horizontalStack=0;rounded=1;fontSize=14;fontStyle=0;strokeWidth=2;resizeParent=0;resizeLast=1;shadow=0;dashed=0;align=center;arcSize=4;whiteSpace=wrap;html=1;" parent="1" vertex="1">
          <mxGeometry x="970" y="30" width="160" height="70" as="geometry" />
        </mxCell>
        <mxCell id="nHZGqctwkZ7mky7nG77i-16" value="- Usuário Id&lt;div&gt;- Permissão Id&lt;/div&gt;" style="align=left;strokeColor=none;fillColor=none;spacingLeft=4;fontSize=12;verticalAlign=top;resizable=0;rotatable=0;part=1;html=1;" parent="nHZGqctwkZ7mky7nG77i-15" vertex="1">
          <mxGeometry y="30" width="160" height="40" as="geometry" />
        </mxCell>
        <mxCell id="nHZGqctwkZ7mky7nG77i-18" style="edgeStyle=orthogonalEdgeStyle;rounded=0;orthogonalLoop=1;jettySize=auto;html=1;entryX=0;entryY=0.25;entryDx=0;entryDy=0;" parent="1" source="nHZGqctwkZ7mky7nG77i-7" target="nHZGqctwkZ7mky7nG77i-16" edge="1">
          <mxGeometry relative="1" as="geometry" />
        </mxCell>
        <mxCell id="nHZGqctwkZ7mky7nG77i-20" value="Cliente" style="swimlane;childLayout=stackLayout;horizontal=1;startSize=30;horizontalStack=0;rounded=1;fontSize=14;fontStyle=0;strokeWidth=2;resizeParent=0;resizeLast=1;shadow=0;dashed=0;align=center;arcSize=4;whiteSpace=wrap;html=1;" parent="1" vertex="1">
          <mxGeometry x="850" y="520" width="160" height="280" as="geometry" />
        </mxCell>
        <mxCell id="nHZGqctwkZ7mky7nG77i-21" value="- Cliente Id&lt;div&gt;- Tipo Cliente Id&lt;div&gt;- Razão Social&lt;/div&gt;&lt;div&gt;- Nome&lt;/div&gt;&lt;div&gt;- Sobrenome&lt;/div&gt;&lt;div&gt;- CPF&lt;/div&gt;&lt;div&gt;- CPNJ&lt;/div&gt;&lt;div&gt;- Descrição&lt;/div&gt;&lt;div&gt;- Logradouro&lt;/div&gt;&lt;div&gt;- Rua&lt;/div&gt;&lt;div&gt;- Bairro&lt;/div&gt;&lt;div&gt;- CEP&lt;/div&gt;&lt;div&gt;- Cidade Id&lt;/div&gt;&lt;div&gt;- Status&lt;/div&gt;&lt;div&gt;- Usuário Id&lt;/div&gt;&lt;div&gt;&lt;span style=&quot;background-color: initial;&quot;&gt;- Data Criação&lt;/span&gt;&amp;nbsp;&lt;/div&gt;&lt;div&gt;&lt;br&gt;&lt;/div&gt;&lt;/div&gt;" style="align=left;strokeColor=none;fillColor=none;spacingLeft=4;fontSize=12;verticalAlign=top;resizable=0;rotatable=0;part=1;html=1;" parent="nHZGqctwkZ7mky7nG77i-20" vertex="1">
          <mxGeometry y="30" width="160" height="250" as="geometry" />
        </mxCell>
        <mxCell id="nHZGqctwkZ7mky7nG77i-23" value="Tipo Cliente&amp;nbsp;" style="swimlane;childLayout=stackLayout;horizontal=1;startSize=30;horizontalStack=0;rounded=1;fontSize=14;fontStyle=0;strokeWidth=2;resizeParent=0;resizeLast=1;shadow=0;dashed=0;align=center;arcSize=4;whiteSpace=wrap;html=1;" parent="1" vertex="1">
          <mxGeometry x="1090" y="520" width="160" height="90" as="geometry" />
        </mxCell>
        <mxCell id="nHZGqctwkZ7mky7nG77i-24" value="- Tipo Cliente Id&lt;div&gt;- Nome&lt;/div&gt;&lt;div&gt;- Descrição&lt;/div&gt;" style="align=left;strokeColor=none;fillColor=none;spacingLeft=4;fontSize=12;verticalAlign=top;resizable=0;rotatable=0;part=1;html=1;" parent="nHZGqctwkZ7mky7nG77i-23" vertex="1">
          <mxGeometry y="30" width="160" height="60" as="geometry" />
        </mxCell>
        <mxCell id="QyyUy4oXN8FV1IVaJ9Bp-20" style="edgeStyle=orthogonalEdgeStyle;rounded=0;orthogonalLoop=1;jettySize=auto;html=1;entryX=0.5;entryY=1;entryDx=0;entryDy=0;" edge="1" parent="1" source="nHZGqctwkZ7mky7nG77i-26" target="QyyUy4oXN8FV1IVaJ9Bp-6">
          <mxGeometry relative="1" as="geometry" />
        </mxCell>
        <mxCell id="QyyUy4oXN8FV1IVaJ9Bp-21" style="edgeStyle=orthogonalEdgeStyle;rounded=0;orthogonalLoop=1;jettySize=auto;html=1;entryX=0.5;entryY=1;entryDx=0;entryDy=0;" edge="1" parent="1" source="nHZGqctwkZ7mky7nG77i-26" target="nHZGqctwkZ7mky7nG77i-21">
          <mxGeometry relative="1" as="geometry" />
        </mxCell>
        <mxCell id="nHZGqctwkZ7mky7nG77i-26" value="Cidade" style="swimlane;childLayout=stackLayout;horizontal=1;startSize=30;horizontalStack=0;rounded=1;fontSize=14;fontStyle=0;strokeWidth=2;resizeParent=0;resizeLast=1;shadow=0;dashed=0;align=center;arcSize=4;whiteSpace=wrap;html=1;" parent="1" vertex="1">
          <mxGeometry x="720" y="890" width="160" height="90" as="geometry" />
        </mxCell>
        <mxCell id="nHZGqctwkZ7mky7nG77i-27" value="- Cidade Id&lt;div&gt;- Nome&lt;/div&gt;&lt;div&gt;- EstadoUf&lt;/div&gt;" style="align=left;strokeColor=none;fillColor=none;spacingLeft=4;fontSize=12;verticalAlign=top;resizable=0;rotatable=0;part=1;html=1;" parent="nHZGqctwkZ7mky7nG77i-26" vertex="1">
          <mxGeometry y="30" width="160" height="60" as="geometry" />
        </mxCell>
        <mxCell id="nHZGqctwkZ7mky7nG77i-31" value="Estado" style="swimlane;childLayout=stackLayout;horizontal=1;startSize=30;horizontalStack=0;rounded=1;fontSize=14;fontStyle=0;strokeWidth=2;resizeParent=0;resizeLast=1;shadow=0;dashed=0;align=center;arcSize=4;whiteSpace=wrap;html=1;" parent="1" vertex="1">
          <mxGeometry x="1020" y="890" width="160" height="70" as="geometry" />
        </mxCell>
        <mxCell id="nHZGqctwkZ7mky7nG77i-32" value="- EstadoUf&lt;div&gt;- Nome&lt;/div&gt;" style="align=left;strokeColor=none;fillColor=none;spacingLeft=4;fontSize=12;verticalAlign=top;resizable=0;rotatable=0;part=1;html=1;" parent="nHZGqctwkZ7mky7nG77i-31" vertex="1">
          <mxGeometry y="30" width="160" height="40" as="geometry" />
        </mxCell>
        <mxCell id="QyyUy4oXN8FV1IVaJ9Bp-28" style="edgeStyle=orthogonalEdgeStyle;rounded=0;orthogonalLoop=1;jettySize=auto;html=1;" edge="1" parent="1" source="nHZGqctwkZ7mky7nG77i-35" target="QyyUy4oXN8FV1IVaJ9Bp-23">
          <mxGeometry relative="1" as="geometry" />
        </mxCell>
        <mxCell id="nHZGqctwkZ7mky7nG77i-35" value="Produto" style="swimlane;childLayout=stackLayout;horizontal=1;startSize=30;horizontalStack=0;rounded=1;fontSize=14;fontStyle=0;strokeWidth=2;resizeParent=0;resizeLast=1;shadow=0;dashed=0;align=center;arcSize=4;whiteSpace=wrap;html=1;" parent="1" vertex="1">
          <mxGeometry x="500" y="330" width="160" height="160" as="geometry" />
        </mxCell>
        <mxCell id="nHZGqctwkZ7mky7nG77i-36" value="- Produto Id&lt;div&gt;- Nome&lt;/div&gt;&lt;div&gt;- Descrição&lt;/div&gt;&lt;div&gt;- Preço&lt;/div&gt;&lt;div&gt;- Categoria Id&lt;/div&gt;&lt;div&gt;- Status&lt;/div&gt;&lt;div&gt;- Data Criação&lt;/div&gt;&lt;div&gt;- Usuario Id&lt;/div&gt;" style="align=left;strokeColor=none;fillColor=none;spacingLeft=4;fontSize=12;verticalAlign=top;resizable=0;rotatable=0;part=1;html=1;" parent="nHZGqctwkZ7mky7nG77i-35" vertex="1">
          <mxGeometry y="30" width="160" height="130" as="geometry" />
        </mxCell>
        <mxCell id="nHZGqctwkZ7mky7nG77i-41" value="Categoria" style="swimlane;childLayout=stackLayout;horizontal=1;startSize=30;horizontalStack=0;rounded=1;fontSize=14;fontStyle=0;strokeWidth=2;resizeParent=0;resizeLast=1;shadow=0;dashed=0;align=center;arcSize=4;whiteSpace=wrap;html=1;" parent="1" vertex="1">
          <mxGeometry x="1150" y="210" width="160" height="90" as="geometry" />
        </mxCell>
        <mxCell id="nHZGqctwkZ7mky7nG77i-42" value="- Categoria Id&lt;div&gt;- Nome&lt;/div&gt;&lt;div&gt;- Descrição&lt;/div&gt;" style="align=left;strokeColor=none;fillColor=none;spacingLeft=4;fontSize=12;verticalAlign=top;resizable=0;rotatable=0;part=1;html=1;" parent="nHZGqctwkZ7mky7nG77i-41" vertex="1">
          <mxGeometry y="30" width="160" height="60" as="geometry" />
        </mxCell>
        <mxCell id="nHZGqctwkZ7mky7nG77i-45" value="Fabricação" style="swimlane;childLayout=stackLayout;horizontal=1;startSize=30;horizontalStack=0;rounded=1;fontSize=14;fontStyle=0;strokeWidth=2;resizeParent=0;resizeLast=1;shadow=0;dashed=0;align=center;arcSize=4;whiteSpace=wrap;html=1;" parent="1" vertex="1">
          <mxGeometry x="1120" y="340" width="160" height="90" as="geometry" />
        </mxCell>
        <mxCell id="nHZGqctwkZ7mky7nG77i-46" value="- Produto Id&lt;div&gt;- Produto Matéria Prima&amp;nbsp;&lt;/div&gt;&lt;div&gt;- Quantidade Matéria Prima&lt;/div&gt;" style="align=left;strokeColor=none;fillColor=none;spacingLeft=4;fontSize=12;verticalAlign=top;resizable=0;rotatable=0;part=1;html=1;" parent="nHZGqctwkZ7mky7nG77i-45" vertex="1">
          <mxGeometry y="30" width="160" height="60" as="geometry" />
        </mxCell>
        <mxCell id="nHZGqctwkZ7mky7nG77i-49" value="Composição" style="swimlane;childLayout=stackLayout;horizontal=1;startSize=30;horizontalStack=0;rounded=1;fontSize=14;fontStyle=0;strokeWidth=2;resizeParent=0;resizeLast=1;shadow=0;dashed=0;align=center;arcSize=4;whiteSpace=wrap;html=1;" parent="1" vertex="1">
          <mxGeometry x="1290" y="300" width="160" height="90" as="geometry" />
        </mxCell>
        <mxCell id="nHZGqctwkZ7mky7nG77i-50" value="- Produto Id&lt;div&gt;- Produto Componente&lt;/div&gt;&lt;div&gt;- Quantidade Componente&lt;/div&gt;" style="align=left;strokeColor=none;fillColor=none;spacingLeft=4;fontSize=12;verticalAlign=top;resizable=0;rotatable=0;part=1;html=1;" parent="nHZGqctwkZ7mky7nG77i-49" vertex="1">
          <mxGeometry y="30" width="160" height="60" as="geometry" />
        </mxCell>
        <mxCell id="nHZGqctwkZ7mky7nG77i-54" value="Entrada" style="swimlane;childLayout=stackLayout;horizontal=1;startSize=30;horizontalStack=0;rounded=1;fontSize=14;fontStyle=0;strokeWidth=2;resizeParent=0;resizeLast=1;shadow=0;dashed=0;align=center;arcSize=4;whiteSpace=wrap;html=1;" parent="1" vertex="1">
          <mxGeometry x="460" y="20" width="160" height="160" as="geometry" />
        </mxCell>
        <mxCell id="nHZGqctwkZ7mky7nG77i-55" value="- Entrada Id&lt;div&gt;- Tipo Entrada&lt;/div&gt;&lt;div&gt;- Usuário Id&lt;br&gt;&lt;/div&gt;&lt;div&gt;- Nota Fiscal&lt;/div&gt;&lt;div&gt;- Data Nota Fiscal&lt;/div&gt;&lt;div&gt;- Cliente Id&lt;/div&gt;&lt;div&gt;- Turno&lt;/div&gt;&lt;div&gt;- Observação&lt;/div&gt;" style="align=left;strokeColor=none;fillColor=none;spacingLeft=4;fontSize=12;verticalAlign=top;resizable=0;rotatable=0;part=1;html=1;" parent="nHZGqctwkZ7mky7nG77i-54" vertex="1">
          <mxGeometry y="30" width="160" height="130" as="geometry" />
        </mxCell>
        <mxCell id="nHZGqctwkZ7mky7nG77i-57" value="Saída" style="swimlane;childLayout=stackLayout;horizontal=1;startSize=30;horizontalStack=0;rounded=1;fontSize=14;fontStyle=0;strokeWidth=2;resizeParent=0;resizeLast=1;shadow=0;dashed=0;align=center;arcSize=4;whiteSpace=wrap;html=1;" parent="1" vertex="1">
          <mxGeometry x="270" y="20" width="160" height="140" as="geometry" />
        </mxCell>
        <mxCell id="nHZGqctwkZ7mky7nG77i-58" value="- Saída Id&lt;div&gt;- Tipo Saída&lt;/div&gt;&lt;div&gt;- Usuário Id&lt;br&gt;&lt;/div&gt;&lt;div&gt;- Nota Fiscal&lt;/div&gt;&lt;div&gt;- Data Nota Fiscal&lt;/div&gt;&lt;div&gt;- Cliente Id&lt;/div&gt;&lt;div&gt;- Observação&lt;/div&gt;" style="align=left;strokeColor=none;fillColor=none;spacingLeft=4;fontSize=12;verticalAlign=top;resizable=0;rotatable=0;part=1;html=1;" parent="nHZGqctwkZ7mky7nG77i-57" vertex="1">
          <mxGeometry y="30" width="160" height="110" as="geometry" />
        </mxCell>
        <mxCell id="nHZGqctwkZ7mky7nG77i-60" value="Tipo Entrada" style="swimlane;childLayout=stackLayout;horizontal=1;startSize=30;horizontalStack=0;rounded=1;fontSize=14;fontStyle=0;strokeWidth=2;resizeParent=0;resizeLast=1;shadow=0;dashed=0;align=center;arcSize=4;whiteSpace=wrap;html=1;" parent="1" vertex="1">
          <mxGeometry x="690" y="30" width="160" height="90" as="geometry" />
        </mxCell>
        <mxCell id="nHZGqctwkZ7mky7nG77i-61" value="- Tipo Entrada&lt;div&gt;- Nome&lt;/div&gt;&lt;div&gt;- Descrição&lt;/div&gt;" style="align=left;strokeColor=none;fillColor=none;spacingLeft=4;fontSize=12;verticalAlign=top;resizable=0;rotatable=0;part=1;html=1;" parent="nHZGqctwkZ7mky7nG77i-60" vertex="1">
          <mxGeometry y="30" width="160" height="60" as="geometry" />
        </mxCell>
        <mxCell id="nHZGqctwkZ7mky7nG77i-63" value="Tipo Saída" style="swimlane;childLayout=stackLayout;horizontal=1;startSize=30;horizontalStack=0;rounded=1;fontSize=14;fontStyle=0;strokeWidth=2;resizeParent=0;resizeLast=1;shadow=0;dashed=0;align=center;arcSize=4;whiteSpace=wrap;html=1;" parent="1" vertex="1">
          <mxGeometry x="50" y="40" width="160" height="90" as="geometry" />
        </mxCell>
        <mxCell id="nHZGqctwkZ7mky7nG77i-64" value="- Tipo Saída&lt;div&gt;- Nome&lt;/div&gt;&lt;div&gt;- Descrição&lt;/div&gt;" style="align=left;strokeColor=none;fillColor=none;spacingLeft=4;fontSize=12;verticalAlign=top;resizable=0;rotatable=0;part=1;html=1;" parent="nHZGqctwkZ7mky7nG77i-63" vertex="1">
          <mxGeometry y="30" width="160" height="60" as="geometry" />
        </mxCell>
        <mxCell id="nHZGqctwkZ7mky7nG77i-66" value="Movimentação" style="swimlane;childLayout=stackLayout;horizontal=1;startSize=30;horizontalStack=0;rounded=1;fontSize=14;fontStyle=0;strokeWidth=2;resizeParent=0;resizeLast=1;shadow=0;dashed=0;align=center;arcSize=4;whiteSpace=wrap;html=1;" parent="1" vertex="1">
          <mxGeometry x="190" y="330" width="160" height="160" as="geometry" />
        </mxCell>
        <mxCell id="nHZGqctwkZ7mky7nG77i-67" value="- Movimentação Id&lt;div&gt;- Tipo Movimentação&lt;/div&gt;&lt;div&gt;- Data Movimentação&lt;/div&gt;&lt;div&gt;- Estoque Id&lt;/div&gt;&lt;div&gt;- Entrada Id&lt;/div&gt;&lt;div&gt;- Saída Id&lt;/div&gt;&lt;div&gt;- Produto Id&lt;/div&gt;&lt;div&gt;- Quantidade&lt;/div&gt;" style="align=left;strokeColor=none;fillColor=none;spacingLeft=4;fontSize=12;verticalAlign=top;resizable=0;rotatable=0;part=1;html=1;" parent="nHZGqctwkZ7mky7nG77i-66" vertex="1">
          <mxGeometry y="30" width="160" height="130" as="geometry" />
        </mxCell>
        <mxCell id="nHZGqctwkZ7mky7nG77i-72" style="edgeStyle=orthogonalEdgeStyle;rounded=0;orthogonalLoop=1;jettySize=auto;html=1;entryX=1;entryY=0.5;entryDx=0;entryDy=0;" parent="1" source="nHZGqctwkZ7mky7nG77i-32" target="nHZGqctwkZ7mky7nG77i-27" edge="1">
          <mxGeometry relative="1" as="geometry" />
        </mxCell>
        <mxCell id="nHZGqctwkZ7mky7nG77i-74" style="edgeStyle=orthogonalEdgeStyle;rounded=0;orthogonalLoop=1;jettySize=auto;html=1;entryX=1.011;entryY=0.276;entryDx=0;entryDy=0;entryPerimeter=0;" parent="1" source="nHZGqctwkZ7mky7nG77i-24" target="nHZGqctwkZ7mky7nG77i-21" edge="1">
          <mxGeometry relative="1" as="geometry" />
        </mxCell>
        <mxCell id="nHZGqctwkZ7mky7nG77i-76" style="edgeStyle=orthogonalEdgeStyle;rounded=0;orthogonalLoop=1;jettySize=auto;html=1;entryX=1;entryY=0.5;entryDx=0;entryDy=0;" parent="1" source="nHZGqctwkZ7mky7nG77i-61" target="nHZGqctwkZ7mky7nG77i-55" edge="1">
          <mxGeometry relative="1" as="geometry" />
        </mxCell>
        <mxCell id="nHZGqctwkZ7mky7nG77i-77" style="edgeStyle=orthogonalEdgeStyle;rounded=0;orthogonalLoop=1;jettySize=auto;html=1;entryX=-0.005;entryY=0.375;entryDx=0;entryDy=0;entryPerimeter=0;" parent="1" source="nHZGqctwkZ7mky7nG77i-63" target="nHZGqctwkZ7mky7nG77i-58" edge="1">
          <mxGeometry relative="1" as="geometry" />
        </mxCell>
        <mxCell id="nHZGqctwkZ7mky7nG77i-78" style="edgeStyle=orthogonalEdgeStyle;rounded=0;orthogonalLoop=1;jettySize=auto;html=1;entryX=0.5;entryY=0;entryDx=0;entryDy=0;" parent="1" source="nHZGqctwkZ7mky7nG77i-58" target="nHZGqctwkZ7mky7nG77i-66" edge="1">
          <mxGeometry relative="1" as="geometry" />
        </mxCell>
        <mxCell id="nHZGqctwkZ7mky7nG77i-79" style="edgeStyle=orthogonalEdgeStyle;rounded=0;orthogonalLoop=1;jettySize=auto;html=1;entryX=0.5;entryY=0;entryDx=0;entryDy=0;" parent="1" source="nHZGqctwkZ7mky7nG77i-55" target="nHZGqctwkZ7mky7nG77i-66" edge="1">
          <mxGeometry relative="1" as="geometry" />
        </mxCell>
        <mxCell id="nHZGqctwkZ7mky7nG77i-81" style="edgeStyle=orthogonalEdgeStyle;rounded=0;orthogonalLoop=1;jettySize=auto;html=1;entryX=1;entryY=0.5;entryDx=0;entryDy=0;" parent="1" source="nHZGqctwkZ7mky7nG77i-36" target="nHZGqctwkZ7mky7nG77i-67" edge="1">
          <mxGeometry relative="1" as="geometry" />
        </mxCell>
        <mxCell id="QyyUy4oXN8FV1IVaJ9Bp-11" style="edgeStyle=orthogonalEdgeStyle;rounded=0;orthogonalLoop=1;jettySize=auto;html=1;entryX=0.5;entryY=1;entryDx=0;entryDy=0;" edge="1" parent="1" source="QyyUy4oXN8FV1IVaJ9Bp-1" target="nHZGqctwkZ7mky7nG77i-67">
          <mxGeometry relative="1" as="geometry" />
        </mxCell>
        <mxCell id="QyyUy4oXN8FV1IVaJ9Bp-25" value="" style="edgeStyle=orthogonalEdgeStyle;rounded=0;orthogonalLoop=1;jettySize=auto;html=1;" edge="1" parent="1" source="QyyUy4oXN8FV1IVaJ9Bp-1" target="QyyUy4oXN8FV1IVaJ9Bp-23">
          <mxGeometry relative="1" as="geometry" />
        </mxCell>
        <mxCell id="QyyUy4oXN8FV1IVaJ9Bp-1" value="Estoque" style="swimlane;childLayout=stackLayout;horizontal=1;startSize=30;horizontalStack=0;rounded=1;fontSize=14;fontStyle=0;strokeWidth=2;resizeParent=0;resizeLast=1;shadow=0;dashed=0;align=center;arcSize=4;whiteSpace=wrap;html=1;" vertex="1" parent="1">
          <mxGeometry x="240" y="660" width="160" height="120" as="geometry" />
        </mxCell>
        <mxCell id="QyyUy4oXN8FV1IVaJ9Bp-2" value="- Estoque Id&lt;div&gt;- Nome Estoque&lt;/div&gt;&lt;div&gt;- Empresa Id&lt;/div&gt;&lt;div&gt;- Status&lt;/div&gt;&lt;div&gt;- Data Criação&lt;/div&gt;" style="align=left;strokeColor=none;fillColor=none;spacingLeft=4;fontSize=12;verticalAlign=top;resizable=0;rotatable=0;part=1;html=1;" vertex="1" parent="QyyUy4oXN8FV1IVaJ9Bp-1">
          <mxGeometry y="30" width="160" height="90" as="geometry" />
        </mxCell>
        <mxCell id="QyyUy4oXN8FV1IVaJ9Bp-5" value="Empresa" style="swimlane;childLayout=stackLayout;horizontal=1;startSize=30;horizontalStack=0;rounded=1;fontSize=14;fontStyle=0;strokeWidth=2;resizeParent=0;resizeLast=1;shadow=0;dashed=0;align=center;arcSize=4;whiteSpace=wrap;html=1;" vertex="1" parent="1">
          <mxGeometry x="640" y="520" width="160" height="220" as="geometry" />
        </mxCell>
        <mxCell id="QyyUy4oXN8FV1IVaJ9Bp-6" value="- Empresa Id&lt;div&gt;- Razão Social&lt;/div&gt;&lt;div&gt;- CPNJ&lt;/div&gt;&lt;div&gt;- Descrição&lt;/div&gt;&lt;div&gt;- Logradouro&lt;/div&gt;&lt;div&gt;- Rua&lt;/div&gt;&lt;div&gt;- Bairro&lt;/div&gt;&lt;div&gt;- CEP&lt;/div&gt;&lt;div&gt;- Cidade Id&lt;/div&gt;&lt;div&gt;- Status&lt;/div&gt;&lt;div&gt;- Usuário Id&lt;/div&gt;&lt;div&gt;&lt;span style=&quot;background-color: initial;&quot;&gt;- Data Criação&lt;/span&gt;&amp;nbsp;&lt;/div&gt;" style="align=left;strokeColor=none;fillColor=none;spacingLeft=4;fontSize=12;verticalAlign=top;resizable=0;rotatable=0;part=1;html=1;" vertex="1" parent="QyyUy4oXN8FV1IVaJ9Bp-5">
          <mxGeometry y="30" width="160" height="190" as="geometry" />
        </mxCell>
        <mxCell id="QyyUy4oXN8FV1IVaJ9Bp-15" style="edgeStyle=orthogonalEdgeStyle;rounded=0;orthogonalLoop=1;jettySize=auto;html=1;entryX=1;entryY=0.25;entryDx=0;entryDy=0;" edge="1" parent="1" source="QyyUy4oXN8FV1IVaJ9Bp-6" target="QyyUy4oXN8FV1IVaJ9Bp-2">
          <mxGeometry relative="1" as="geometry" />
        </mxCell>
        <mxCell id="QyyUy4oXN8FV1IVaJ9Bp-16" style="edgeStyle=orthogonalEdgeStyle;rounded=0;orthogonalLoop=1;jettySize=auto;html=1;entryX=0.5;entryY=0;entryDx=0;entryDy=0;" edge="1" parent="1" source="nHZGqctwkZ7mky7nG77i-7" target="QyyUy4oXN8FV1IVaJ9Bp-5">
          <mxGeometry relative="1" as="geometry" />
        </mxCell>
        <mxCell id="QyyUy4oXN8FV1IVaJ9Bp-17" style="edgeStyle=orthogonalEdgeStyle;rounded=0;orthogonalLoop=1;jettySize=auto;html=1;entryX=0.5;entryY=0;entryDx=0;entryDy=0;" edge="1" parent="1" source="nHZGqctwkZ7mky7nG77i-7" target="nHZGqctwkZ7mky7nG77i-20">
          <mxGeometry relative="1" as="geometry" />
        </mxCell>
        <mxCell id="QyyUy4oXN8FV1IVaJ9Bp-22" style="edgeStyle=orthogonalEdgeStyle;rounded=0;orthogonalLoop=1;jettySize=auto;html=1;entryX=1;entryY=0.25;entryDx=0;entryDy=0;" edge="1" parent="1" source="nHZGqctwkZ7mky7nG77i-7" target="nHZGqctwkZ7mky7nG77i-36">
          <mxGeometry relative="1" as="geometry" />
        </mxCell>
        <mxCell id="QyyUy4oXN8FV1IVaJ9Bp-23" value="Produto Estoque" style="swimlane;childLayout=stackLayout;horizontal=1;startSize=30;horizontalStack=0;rounded=1;fontSize=14;fontStyle=0;strokeWidth=2;resizeParent=0;resizeLast=1;shadow=0;dashed=0;align=center;arcSize=4;whiteSpace=wrap;html=1;" vertex="1" parent="1">
          <mxGeometry x="370" y="530" width="160" height="90" as="geometry" />
        </mxCell>
        <mxCell id="QyyUy4oXN8FV1IVaJ9Bp-24" value="&lt;div&gt;&lt;span style=&quot;background-color: initial;&quot;&gt;- Estoque Id&lt;/span&gt;&lt;br&gt;&lt;/div&gt;&lt;div&gt;- Produto Id&lt;/div&gt;&lt;div&gt;- Quantidade&amp;nbsp;&lt;/div&gt;" style="align=left;strokeColor=none;fillColor=none;spacingLeft=4;fontSize=12;verticalAlign=top;resizable=0;rotatable=0;part=1;html=1;" vertex="1" parent="QyyUy4oXN8FV1IVaJ9Bp-23">
          <mxGeometry y="30" width="160" height="60" as="geometry" />
        </mxCell>
      </root>
    </mxGraphModel>
  </diagram>
</mxfile>
